<?xml version="1.0" encoding="UTF-8"?>
<svg xmlns="http://www.w3.org/2000/svg" viewBox="0 0 1200 630" width="1200" height="630">
  <defs>
    <linearGradient id="g46431" x1="71.91855733945388%" y1="5.060297685041654%" x2="28.081442660546124%" y2="94.93970231495834%">
      <stop offset="0%" stop-color="#D97706"/>
      <stop offset="100%" stop-color="#B45309"/>
    </linearGradient>
  </defs>
  <rect width="1200" height="630" fill="url(#g46431)"/>
  <path d="M 100 266.4431607350707 L 100 309.2228331380219 L 110 292.33280700415276 L 120 309.3267004700583 L 130 308.49332083223726 L 140 303.0088270194525 L 150 309.0947410616359 L 160 307.73593481078666 L 170 278.5970733363929 L 180 242.50407450941418 L 190 308.3448833132796 L 200 297.15344092237945 L 210 231.77202275552102 L 220 224.94313925000174 L 230 223.53397064093613 L 240 308.83990543655955 L 250 268.5178766706705 L 260 279.55677977191203 L 270 227.09641629427756 L 280 224.87456858875032 L 290 233.8235504640116 L 300 231.009148298146 L 310 267.7347356223106 L 320 224.68009833143822 L 330 247.24023591447568 L 340 226.44673787065557 L 350 229.62394640648293 L 360 232.97069243453367 L 370 225.426719432514 L 380 243.2522422480774 L 390 243.19592109601075 L 400 227.85268335055355 L 410 269.57098035215756 L 420 244.66517591927843 L 430 244.46893780057468 L 440 224.2565232842671 L 450 277.3231219962857 L 460 300.110318947149 L 470 228.9099197427089 L 480 256.1505771067504 L 490 309.12226058451193 L 500 257.2550389949944 L 510 247.16556020268627 L 520 255.08828491120363 L 530 309.51409361865166 L 540 277.68368491516156 L 550 300.98469695735685 L 560 308.3766699418451 L 570 306.9531177516073 L 580 266.4897772368447 L 590 307.1671674454222 L 600 300.3488894949908 L 610 301.00469749452594 L 620 308.80864535080013 L 630 302.694378243193 L 640 307.3583379017907 L 650 248.62202970084763 L 660 309.1934042721036 L 670 276.3685627978676 L 680 262.5189553640931 L 690 306.6394330152204 L 700 305.7434690331032 L 710 303.47541426091084 L 720 238.4534121728439 L 730 284.4873833470044 L 740 264.7916220747416 L 750 246.9655333375727 L 760 238.08084202229537 L 770 300.7557269412231 L 780 238.62482985965983 L 790 225.5020569741958 L 800 269.20487269473523 L 810 225.07128466270834 L 820 245.18413812031278 L 830 223.99402361252407 L 840 271.60477142185283 L 850 240.96507819404934 L 860 223.40366383299045 L 870 232.5599674059128 L 880 254.8187190906171 L 890 223.65570697665004 L 900 223.33433170086465 L 910 233.4336145481033 L 920 223.41229176091673 L 930 226.12924364469504 L 940 280.21675709290696 L 950 300.8813899221472 L 960 286.6660029134185 L 970 301.5426661150205 L 980 224.4008768833824 L 990 302.3957323220998 L 1000 236.41108245194312 L 1010 263.13510630248913 L 1020 288.04886696220905 L 1030 279.9078246953426 L 1040 235.40426427223525 L 1050 239.43739650393562 L 1060 305.5568080248246 L 1070 309.5901418195253 L 1080 288.82759590694076 L 1090 283.0715700560545 L 1100 265.8974822434342" fill="none" stroke="rgba(255,255,255,0.15)" stroke-width="3"/><text x="460.1274973945692" y="324.24327559769154" font-family="serif" font-size="180" fill="rgba(255,255,255,0.08)" font-weight="bold">π</text><polygon points="1021.3113773148507,249.56301117315888 951.5929967835079,369.76711553754285 1091.0297578461934,369.76711553754285" fill="none" stroke="rgba(255,255,255,0.18571622828952966)" stroke-width="2"/><polygon points="116.47649798542261,168.72151301475242 54.60480801281519,275.3968405537307 178.34818795803002,275.3968405537307" fill="none" stroke="rgba(255,255,255,0.1215932863485068)" stroke-width="2"/><polygon points="628.9030142594129,450.22593359462917 561.8895238682628,565.7664342690259 695.916504650563,565.7664342690259" fill="none" stroke="rgba(255,255,255,0.09953482109121978)" stroke-width="2"/><polygon points="810.5032815597951,46.87016585841775 734.7154670719058,177.5388115271926 886.2910960476845,177.5388115271926" fill="none" stroke="rgba(255,255,255,0.1078903067111969)" stroke-width="2"/><polygon points="913.7849112972617,167.78238082304597 859.7629976743367,260.9236112073995 967.8068249201867,260.9236112073995" fill="none" stroke="rgba(255,255,255,0.17557024287059902)" stroke-width="2"/><line x1="779.1288739116862" y1="169.2809936357662" x2="939.1288739116862" y2="169.2809936357662" stroke="rgba(255,255,255,0.12)" stroke-width="2"/><line x1="859.1288739116862" y1="89.28099363576621" x2="859.1288739116862" y2="249.2809936357662" stroke="rgba(255,255,255,0.12)" stroke-width="2"/><text x="222.95509926974773" y="376.76646215841174" font-family="serif" font-size="140" fill="rgba(255,255,255,0.07)">∫</text><circle cx="697.6478224620223" cy="243.04569529602304" r="28.298054486513138" fill="none" stroke="rgba(255,255,255,0.15862493043765424)" stroke-width="1.5"/><circle cx="271.0032703354955" cy="201.85307862237096" r="56.2154745310545" fill="none" stroke="rgba(255,255,255,0.13478764257393777)" stroke-width="1.5"/><circle cx="846.1108598858118" cy="201.61697653820738" r="45.70831091143191" fill="none" stroke="rgba(255,255,255,0.1565516267810017)" stroke-width="1.5"/><circle cx="803.9622915908694" cy="152.647204475943" r="29.773278245702386" fill="none" stroke="rgba(255,255,255,0.09388625932857395)" stroke-width="1.5"/>
  <circle cx="244.228807836771" cy="473.767811532598" r="1.0994815793819726" fill="rgba(255,255,255,0.036198479584418235)"/><circle cx="1056.2329589389265" cy="56.91101982956752" r="1.7492775707505643" fill="rgba(255,255,255,0.056673949114046995)"/><circle cx="706.0073121450841" cy="138.3659146958962" r="2.72569986153394" fill="rgba(255,255,255,0.03926075616152957)"/><circle cx="411.50182597339153" cy="148.3436248381622" r="1.26877818768844" fill="rgba(255,255,255,0.06060208422830328)"/><circle cx="69.03258198872209" cy="43.06717531057075" r="2.4045955492183566" fill="rgba(255,255,255,0.07740974527085201)"/><circle cx="1177.7762526646256" cy="261.036052107811" r="2.9373925728723407" fill="rgba(255,255,255,0.056781022211071105)"/><circle cx="555.0216067582369" cy="339.27639934932813" r="1.1339994771406054" fill="rgba(255,255,255,0.03217244239756838)"/><circle cx="950.3535772673786" cy="377.1272321906872" r="2.9684166265651584" fill="rgba(255,255,255,0.06783103983150796)"/><circle cx="349.16506335139275" cy="242.8519854345359" r="1.2094299159944057" fill="rgba(255,255,255,0.061831865501590075)"/><circle cx="409.61682507768273" cy="453.78602081676945" r="2.3450375865213573" fill="rgba(255,255,255,0.06943140445044264)"/><circle cx="1012.0118756778538" cy="244.32047175709158" r="1.7890818589366972" fill="rgba(255,255,255,0.052811321076005696)"/><circle cx="664.0827138908207" cy="421.3697331561707" r="2.5892666443251073" fill="rgba(255,255,255,0.07562032769899815)"/><circle cx="1144.2769492976367" cy="235.22893663030118" r="1.0544107295572758" fill="rgba(255,255,255,0.03162479266291484)"/><circle cx="814.2947472631931" cy="277.8977875574492" r="2.0351229356601834" fill="rgba(255,255,255,0.04694867733167485)"/><circle cx="1177.8920070268214" cy="283.85425643529743" r="1.144606868736446" fill="rgba(255,255,255,0.06801487177843228)"/><circle cx="1157.4472339823842" cy="417.17476062476635" r="1.828590277582407" fill="rgba(255,255,255,0.07017009071540087)"/><circle cx="15.898464247584343" cy="283.9243719354272" r="1.1529928361997008" fill="rgba(255,255,255,0.037416901306714864)"/><circle cx="791.4105218835175" cy="493.54586471104994" r="1.0169204440899193" fill="rgba(255,255,255,0.0707762874965556)"/><circle cx="1099.1074841469526" cy="308.11535554239526" r="2.147907354403287" fill="rgba(255,255,255,0.05041686630109325)"/><circle cx="1194.1006832756102" cy="601.4098595269024" r="2.507035383954644" fill="rgba(255,255,255,0.04780682228272781)"/>
  <text x="600" y="335" font-family="system-ui, -apple-system, 'Segoe UI', sans-serif" font-size="68" font-weight="700" fill="rgba(0,0,0,0.15)" text-anchor="middle" letter-spacing="1">AP Statistics</text>
  <text x="600" y="332" font-family="system-ui, -apple-system, 'Segoe UI', sans-serif" font-size="68" font-weight="700" fill="white" text-anchor="middle" letter-spacing="1">AP Statistics</text>
  <g transform="translate(1140, 575)">
    <rect x="0" y="0" width="40" height="40" rx="8" fill="rgba(255,255,255,0.15)"/>
    <text x="20" y="29" font-family="sans-serif" font-weight="bold" font-size="24" fill="rgba(255,255,255,0.6)" text-anchor="middle">K</text>
  </g>
</svg>